<svg width="127" height="40" viewBox="0 0 127 40" fill="none" xmlns="http://www.w3.org/2000/svg">
<rect x="0.5" y="0.5" width="126" height="39" rx="6.5" fill="black" stroke="#A6A6A6"/>
<path d="M36.321 14.5H35.196L37.2443 8.68182H38.5455L40.5966 14.5H39.4716L37.9176 9.875H37.8722L36.321 14.5ZM36.358 12.2188H39.4261V13.0653H36.358V12.2188ZM42.3459 8.68182V14.5H41.3175V8.68182H42.3459ZM46.8523 11.2898L45.9148 11.392C45.8883 11.2973 45.8419 11.2083 45.7756 11.125C45.7112 11.0417 45.6241 10.9744 45.5142 10.9233C45.4044 10.8722 45.2699 10.8466 45.1108 10.8466C44.8968 10.8466 44.7169 10.893 44.571 10.9858C44.4271 11.0786 44.3561 11.1989 44.358 11.3466C44.3561 11.4735 44.4025 11.5767 44.4972 11.6562C44.5938 11.7358 44.7528 11.8011 44.9744 11.8523L45.7188 12.0114C46.1316 12.1004 46.4384 12.2415 46.6392 12.4347C46.8419 12.6278 46.9441 12.8807 46.946 13.1932C46.9441 13.4678 46.8636 13.7102 46.7045 13.9205C46.5473 14.1288 46.3286 14.2917 46.0483 14.4091C45.768 14.5265 45.446 14.5852 45.0824 14.5852C44.5483 14.5852 44.1184 14.4735 43.7926 14.25C43.4669 14.0246 43.2727 13.7112 43.2102 13.3097L44.2131 13.2131C44.2585 13.41 44.3551 13.5587 44.5028 13.6591C44.6506 13.7595 44.8428 13.8097 45.0795 13.8097C45.3239 13.8097 45.5199 13.7595 45.6676 13.6591C45.8172 13.5587 45.892 13.4347 45.892 13.2869C45.892 13.1619 45.8438 13.0587 45.7472 12.9773C45.6525 12.8958 45.5047 12.8333 45.304 12.7898L44.5597 12.6335C44.1411 12.5464 43.8314 12.3996 43.6307 12.1932C43.4299 11.9848 43.3305 11.7216 43.3324 11.4034C43.3305 11.1345 43.4034 10.9015 43.5511 10.7045C43.7008 10.5057 43.9081 10.3523 44.1733 10.2443C44.4403 10.1345 44.7481 10.0795 45.0966 10.0795C45.608 10.0795 46.0104 10.1884 46.304 10.4062C46.5994 10.6241 46.7822 10.9186 46.8523 11.2898ZM49.6974 14.5852C49.2713 14.5852 48.902 14.4915 48.5895 14.304C48.277 14.1165 48.0346 13.8542 47.8622 13.517C47.6918 13.1799 47.6065 12.786 47.6065 12.3352C47.6065 11.8845 47.6918 11.4896 47.8622 11.1506C48.0346 10.8116 48.277 10.5483 48.5895 10.3608C48.902 10.1733 49.2713 10.0795 49.6974 10.0795C50.1236 10.0795 50.4929 10.1733 50.8054 10.3608C51.1179 10.5483 51.3594 10.8116 51.5298 11.1506C51.7022 11.4896 51.7884 11.8845 51.7884 12.3352C51.7884 12.786 51.7022 13.1799 51.5298 13.517C51.3594 13.8542 51.1179 14.1165 50.8054 14.304C50.4929 14.4915 50.1236 14.5852 49.6974 14.5852ZM49.7031 13.7614C49.9342 13.7614 50.1274 13.6979 50.2827 13.571C50.438 13.4422 50.5535 13.2699 50.6293 13.054C50.7069 12.8381 50.7457 12.5975 50.7457 12.3324C50.7457 12.0653 50.7069 11.8239 50.6293 11.608C50.5535 11.3902 50.438 11.2169 50.2827 11.0881C50.1274 10.9593 49.9342 10.8949 49.7031 10.8949C49.4664 10.8949 49.2694 10.9593 49.1122 11.0881C48.9569 11.2169 48.8404 11.3902 48.7628 11.608C48.687 11.8239 48.6491 12.0653 48.6491 12.3324C48.6491 12.5975 48.687 12.8381 48.7628 13.054C48.8404 13.2699 48.9569 13.4422 49.1122 13.571C49.2694 13.6979 49.4664 13.7614 49.7031 13.7614ZM56.549 14.5852C56.1229 14.5852 55.7536 14.4915 55.4411 14.304C55.1286 14.1165 54.8861 13.8542 54.7138 13.517C54.5433 13.1799 54.4581 12.786 54.4581 12.3352C54.4581 11.8845 54.5433 11.4896 54.7138 11.1506C54.8861 10.8116 55.1286 10.5483 55.4411 10.3608C55.7536 10.1733 56.1229 10.0795 56.549 10.0795C56.9751 10.0795 57.3445 10.1733 57.657 10.3608C57.9695 10.5483 58.2109 10.8116 58.3814 11.1506C58.5537 11.4896 58.6399 11.8845 58.6399 12.3352C58.6399 12.786 58.5537 13.1799 58.3814 13.517C58.2109 13.8542 57.9695 14.1165 57.657 14.304C57.3445 14.4915 56.9751 14.5852 56.549 14.5852ZM56.5547 13.7614C56.7857 13.7614 56.9789 13.6979 57.1342 13.571C57.2895 13.4422 57.4051 13.2699 57.4808 13.054C57.5585 12.8381 57.5973 12.5975 57.5973 12.3324C57.5973 12.0653 57.5585 11.8239 57.4808 11.608C57.4051 11.3902 57.2895 11.2169 57.1342 11.0881C56.9789 10.9593 56.7857 10.8949 56.5547 10.8949C56.3179 10.8949 56.121 10.9593 55.9638 11.0881C55.8085 11.2169 55.692 11.3902 55.6143 11.608C55.5386 11.8239 55.5007 12.0653 55.5007 12.3324C55.5007 12.5975 55.5386 12.8381 55.6143 13.054C55.692 13.2699 55.8085 13.4422 55.9638 13.571C56.121 13.6979 56.3179 13.7614 56.5547 13.7614ZM60.5412 11.9432V14.5H59.5128V10.1364H60.4957V10.8778H60.5469C60.6473 10.6335 60.8073 10.4394 61.027 10.2955C61.2486 10.1515 61.5223 10.0795 61.848 10.0795C62.1491 10.0795 62.4115 10.1439 62.6349 10.2727C62.8603 10.4015 63.0346 10.5881 63.1577 10.8324C63.2827 11.0767 63.3442 11.3731 63.3423 11.7216V14.5H62.3139V11.8807C62.3139 11.589 62.2382 11.3608 62.0866 11.196C61.937 11.0312 61.7296 10.9489 61.4645 10.9489C61.2846 10.9489 61.1245 10.9886 60.9844 11.0682C60.8461 11.1458 60.7372 11.2585 60.6577 11.4062C60.58 11.554 60.5412 11.733 60.5412 11.9432ZM68.5511 10.1364V10.9318H66.0426V10.1364H68.5511ZM66.6619 9.09091H67.6903V13.1875C67.6903 13.3258 67.7112 13.4318 67.7528 13.5057C67.7964 13.5777 67.8532 13.6269 67.9233 13.6534C67.9934 13.6799 68.071 13.6932 68.1562 13.6932C68.2206 13.6932 68.2794 13.6884 68.3324 13.679C68.3873 13.6695 68.429 13.661 68.4574 13.6534L68.6307 14.4574C68.5758 14.4763 68.4972 14.4972 68.3949 14.5199C68.2945 14.5426 68.1714 14.5559 68.0256 14.5597C67.768 14.5672 67.536 14.5284 67.3295 14.4432C67.1231 14.3561 66.9593 14.2216 66.8381 14.0398C66.7188 13.858 66.66 13.6307 66.6619 13.358V9.09091ZM70.5334 11.9432V14.5H69.505V8.68182H70.5107V10.8778H70.5618C70.6641 10.6316 70.8222 10.4375 71.0362 10.2955C71.2521 10.1515 71.5268 10.0795 71.8601 10.0795C72.1631 10.0795 72.4273 10.143 72.6527 10.2699C72.8781 10.3968 73.0523 10.5824 73.1754 10.8267C73.3004 11.071 73.3629 11.3693 73.3629 11.7216V14.5H72.3345V11.8807C72.3345 11.5871 72.2588 11.3589 72.1072 11.196C71.9576 11.0312 71.7474 10.9489 71.4766 10.9489C71.2947 10.9489 71.1319 10.9886 70.9879 11.0682C70.8459 11.1458 70.7341 11.2585 70.6527 11.4062C70.5732 11.554 70.5334 11.733 70.5334 11.9432ZM76.343 14.5852C75.9055 14.5852 75.5277 14.4943 75.2095 14.3125C74.8932 14.1288 74.6499 13.8693 74.4794 13.5341C74.3089 13.197 74.2237 12.8002 74.2237 12.3438C74.2237 11.8949 74.3089 11.5009 74.4794 11.1619C74.6518 10.821 74.8923 10.5559 75.201 10.3665C75.5097 10.1752 75.8724 10.0795 76.2891 10.0795C76.558 10.0795 76.8118 10.1231 77.0504 10.2102C77.291 10.2955 77.5031 10.428 77.6868 10.608C77.8724 10.7879 78.0182 11.017 78.1243 11.2955C78.2304 11.572 78.2834 11.9015 78.2834 12.2841V12.5994H74.7067V11.9062H77.2976C77.2957 11.7093 77.2531 11.5341 77.1697 11.3807C77.0864 11.2254 76.9699 11.1032 76.8203 11.0142C76.6726 10.9252 76.5002 10.8807 76.3033 10.8807C76.093 10.8807 75.9084 10.9318 75.7493 11.0341C75.5902 11.1345 75.4661 11.267 75.3771 11.4318C75.29 11.5947 75.2455 11.7737 75.2436 11.9688V12.5739C75.2436 12.8277 75.29 13.0455 75.3828 13.2273C75.4756 13.4072 75.6054 13.5455 75.772 13.642C75.9387 13.7367 76.1338 13.7841 76.3572 13.7841C76.5069 13.7841 76.6423 13.7633 76.7635 13.7216C76.8847 13.678 76.9898 13.6146 77.0788 13.5312C77.1679 13.4479 77.2351 13.3447 77.2805 13.2216L78.2408 13.3295C78.1802 13.5833 78.0646 13.8049 77.8942 13.9943C77.7256 14.1818 77.5097 14.3277 77.2464 14.4318C76.9832 14.5341 76.6821 14.5852 76.343 14.5852Z" fill="white"/>
<path d="M37.9222 30L35.2539 20.5455H37.0959L38.7994 27.4933H38.8871L40.706 20.5455H42.3817L44.2053 27.4979H44.2884L45.9918 20.5455H47.8338L45.1655 30H43.4759L41.5831 23.3661H41.5092L39.6119 30H37.9222ZM51.3631 30.1385C50.6522 30.1385 50.0382 29.9908 49.5211 29.6953C49.0072 29.3968 48.6117 28.9751 48.3347 28.4304C48.0577 27.8826 47.9192 27.2378 47.9192 26.4961C47.9192 25.7667 48.0577 25.1265 48.3347 24.5756C48.6148 24.0217 49.0056 23.5908 49.5073 23.283C50.0089 22.9722 50.5983 22.8168 51.2754 22.8168C51.7124 22.8168 52.1248 22.8875 52.5126 23.0291C52.9035 23.1676 53.2482 23.383 53.5467 23.6754C53.8483 23.9678 54.0853 24.3402 54.2576 24.7926C54.43 25.242 54.5162 25.7775 54.5162 26.3991V26.9116H48.704V25.7852H52.9142C52.9112 25.4651 52.8419 25.1804 52.7065 24.9311C52.5711 24.6787 52.3818 24.4802 52.1387 24.3356C51.8986 24.1909 51.6185 24.1186 51.2985 24.1186C50.9569 24.1186 50.6568 24.2017 50.3983 24.3679C50.1397 24.531 49.9382 24.7464 49.7935 25.0142C49.6519 25.2789 49.5796 25.5697 49.5765 25.8867V26.87C49.5765 27.2824 49.6519 27.6364 49.8027 27.9318C49.9535 28.2242 50.1644 28.4489 50.4352 28.6058C50.706 28.7597 51.023 28.8366 51.3862 28.8366C51.6293 28.8366 51.8494 28.8028 52.0463 28.7351C52.2433 28.6643 52.4141 28.5612 52.5588 28.4258C52.7034 28.2904 52.8127 28.1226 52.8865 27.9226L54.4469 28.098C54.3484 28.5104 54.1607 28.8705 53.8837 29.1783C53.6098 29.483 53.2589 29.7199 52.8311 29.8892C52.4033 30.0554 51.914 30.1385 51.3631 30.1385ZM56.0038 30V20.5455H57.675V24.0817H57.7442C57.8304 23.9093 57.952 23.7262 58.1089 23.5323C58.2659 23.3353 58.4782 23.1676 58.746 23.0291C59.0138 22.8875 59.3554 22.8168 59.7709 22.8168C60.3187 22.8168 60.8126 22.9568 61.2528 23.2369C61.6959 23.5138 62.0468 23.9247 62.3053 24.4695C62.5669 25.0111 62.6977 25.6759 62.6977 26.4638C62.6977 27.2424 62.57 27.9041 62.3145 28.4489C62.0591 28.9936 61.7113 29.4091 61.2712 29.6953C60.8311 29.9815 60.3325 30.1246 59.7755 30.1246C59.3692 30.1246 59.0322 30.0569 58.7645 29.9215C58.4967 29.7861 58.2813 29.623 58.1182 29.4322C57.9581 29.2383 57.8335 29.0552 57.7442 28.8828H57.6473V30H56.0038ZM57.6427 26.4545C57.6427 26.9131 57.7073 27.3147 57.8366 27.6594C57.9689 28.0041 58.1582 28.2734 58.4044 28.4673C58.6537 28.6581 58.9553 28.7536 59.3092 28.7536C59.6785 28.7536 59.9878 28.6551 60.2371 28.4581C60.4864 28.258 60.6742 27.9857 60.8003 27.641C60.9296 27.2932 60.9942 26.8977 60.9942 26.4545C60.9942 26.0144 60.9311 25.6236 60.805 25.282C60.6788 24.9403 60.491 24.6726 60.2417 24.4787C59.9925 24.2848 59.6816 24.1879 59.3092 24.1879C58.9522 24.1879 58.6491 24.2817 58.3998 24.4695C58.1505 24.6572 57.9612 24.9203 57.8319 25.2589C57.7058 25.5974 57.6427 25.996 57.6427 26.4545ZM67.4169 30V20.5455H71.0362C71.7195 20.5455 72.2873 20.6532 72.7397 20.8686C73.1952 21.081 73.5353 21.3718 73.7599 21.7411C73.9877 22.1104 74.1016 22.529 74.1016 22.9968C74.1016 23.3815 74.0277 23.7108 73.88 23.9847C73.7322 24.2556 73.5337 24.4756 73.2844 24.6449C73.0352 24.8142 72.7566 24.9357 72.4489 25.0096V25.1019C72.7843 25.1204 73.1059 25.2235 73.4137 25.4112C73.7246 25.5959 73.9785 25.8575 74.1754 26.196C74.3724 26.5346 74.4709 26.9439 74.4709 27.424C74.4709 27.9134 74.3524 28.3535 74.1154 28.7443C73.8784 29.1321 73.5214 29.4383 73.0444 29.663C72.5674 29.8877 71.9672 30 71.244 30H67.4169ZM69.1296 28.5689H70.9716C71.5933 28.5689 72.0411 28.4504 72.315 28.2134C72.592 27.9734 72.7305 27.6656 72.7305 27.2901C72.7305 27.0101 72.6612 26.7577 72.5227 26.533C72.3842 26.3053 72.1873 26.1268 71.9318 25.9975C71.6764 25.8652 71.3717 25.799 71.0178 25.799H69.1296V28.5689ZM69.1296 24.5664H70.8239C71.1193 24.5664 71.3855 24.5125 71.6225 24.4048C71.8595 24.294 72.0457 24.1386 72.1811 23.9386C72.3196 23.7354 72.3888 23.4954 72.3888 23.2184C72.3888 22.8522 72.2596 22.5505 72.0011 22.3136C71.7456 22.0766 71.3655 21.9581 70.8608 21.9581H69.1296V24.5664ZM75.887 30V22.9091H77.5074V24.0909H77.5812C77.7105 23.6816 77.9321 23.3661 78.246 23.1445C78.563 22.9199 78.9246 22.8075 79.3309 22.8075C79.4232 22.8075 79.5263 22.8121 79.6402 22.8214C79.7571 22.8275 79.8541 22.8383 79.931 22.8537V24.391C79.8602 24.3664 79.7479 24.3448 79.594 24.3263C79.4432 24.3048 79.297 24.294 79.1555 24.294C78.8508 24.294 78.5769 24.3602 78.3337 24.4925C78.0937 24.6218 77.9044 24.8018 77.7659 25.0327C77.6274 25.2635 77.5581 25.5297 77.5581 25.8313V30H75.887ZM83.8423 30.1385C83.1499 30.1385 82.5497 29.9862 82.0419 29.6815C81.5341 29.3768 81.1402 28.9505 80.8601 28.4027C80.5831 27.8549 80.4446 27.2147 80.4446 26.4822C80.4446 25.7498 80.5831 25.1081 80.8601 24.5572C81.1402 24.0063 81.5341 23.5785 82.0419 23.2738C82.5497 22.9691 83.1499 22.8168 83.8423 22.8168C84.5348 22.8168 85.1349 22.9691 85.6428 23.2738C86.1506 23.5785 86.543 24.0063 86.82 24.5572C87.1 25.1081 87.2401 25.7498 87.2401 26.4822C87.2401 27.2147 87.1 27.8549 86.82 28.4027C86.543 28.9505 86.1506 29.3768 85.6428 29.6815C85.1349 29.9862 84.5348 30.1385 83.8423 30.1385ZM83.8516 28.7997C84.227 28.7997 84.541 28.6966 84.7933 28.4904C85.0457 28.2811 85.2334 28.0011 85.3565 27.6502C85.4827 27.2994 85.5458 26.9085 85.5458 26.4776C85.5458 26.0437 85.4827 25.6513 85.3565 25.3004C85.2334 24.9465 85.0457 24.6649 84.7933 24.4556C84.541 24.2463 84.227 24.1417 83.8516 24.1417C83.4669 24.1417 83.1468 24.2463 82.8913 24.4556C82.639 24.6649 82.4497 24.9465 82.3235 25.3004C82.2004 25.6513 82.1388 26.0437 82.1388 26.4776C82.1388 26.9085 82.2004 27.2994 82.3235 27.6502C82.4497 28.0011 82.639 28.2811 82.8913 28.4904C83.1468 28.6966 83.4669 28.7997 83.8516 28.7997ZM89.9188 30L87.9152 22.9091H89.6187L90.8651 27.8949H90.9298L92.2039 22.9091H93.8889L95.1631 27.8672H95.2323L96.4603 22.9091H98.1684L96.1602 30H94.4198L93.0903 25.2081H92.9933L91.6638 30H89.9188ZM104.94 24.7834L103.416 24.9496C103.373 24.7957 103.298 24.651 103.19 24.5156C103.085 24.3802 102.944 24.271 102.765 24.1879C102.587 24.1048 102.368 24.0632 102.11 24.0632C101.762 24.0632 101.47 24.1386 101.233 24.2894C100.999 24.4402 100.883 24.6357 100.886 24.8757C100.883 25.0819 100.959 25.2496 101.113 25.3789C101.27 25.5082 101.528 25.6143 101.888 25.6974L103.098 25.956C103.769 26.1006 104.267 26.3299 104.593 26.6438C104.923 26.9577 105.089 27.3686 105.092 27.8764C105.089 28.3227 104.958 28.7166 104.7 29.0582C104.444 29.3968 104.089 29.6615 103.633 29.8523C103.178 30.0431 102.654 30.1385 102.064 30.1385C101.196 30.1385 100.497 29.9569 99.9677 29.5938C99.4383 29.2275 99.1229 28.7182 99.0213 28.0657L100.651 27.9087C100.725 28.2288 100.882 28.4704 101.122 28.6335C101.362 28.7966 101.674 28.8782 102.059 28.8782C102.456 28.8782 102.775 28.7966 103.015 28.6335C103.258 28.4704 103.379 28.2688 103.379 28.0288C103.379 27.8256 103.301 27.6579 103.144 27.5256C102.99 27.3932 102.75 27.2917 102.424 27.2209L101.214 26.967C100.534 26.8254 100.031 26.5869 99.7045 26.2514C99.3783 25.9129 99.2167 25.4851 99.2198 24.968C99.2167 24.531 99.3352 24.1525 99.5753 23.8324C99.8184 23.5092 100.155 23.2599 100.586 23.0845C101.02 22.906 101.52 22.8168 102.087 22.8168C102.918 22.8168 103.572 22.9937 104.049 23.3477C104.529 23.7016 104.826 24.1802 104.94 24.7834ZM109.609 30.1385C108.898 30.1385 108.284 29.9908 107.767 29.6953C107.253 29.3968 106.858 28.9751 106.581 28.4304C106.304 27.8826 106.165 27.2378 106.165 26.4961C106.165 25.7667 106.304 25.1265 106.581 24.5756C106.861 24.0217 107.252 23.5908 107.753 23.283C108.255 22.9722 108.844 22.8168 109.521 22.8168C109.959 22.8168 110.371 22.8875 110.759 23.0291C111.15 23.1676 111.494 23.383 111.793 23.6754C112.094 23.9678 112.331 24.3402 112.504 24.7926C112.676 25.242 112.762 25.7775 112.762 26.3991V26.9116H106.95V25.7852H111.16C111.157 25.4651 111.088 25.1804 110.953 24.9311C110.817 24.6787 110.628 24.4802 110.385 24.3356C110.145 24.1909 109.865 24.1186 109.545 24.1186C109.203 24.1186 108.903 24.2017 108.644 24.3679C108.386 24.531 108.184 24.7464 108.04 25.0142C107.898 25.2789 107.826 25.5697 107.823 25.8867V26.87C107.823 27.2824 107.898 27.6364 108.049 27.9318C108.2 28.2242 108.41 28.4489 108.681 28.6058C108.952 28.7597 109.269 28.8366 109.632 28.8366C109.875 28.8366 110.095 28.8028 110.292 28.7351C110.489 28.6643 110.66 28.5612 110.805 28.4258C110.95 28.2904 111.059 28.1226 111.133 27.9226L112.693 28.098C112.595 28.5104 112.407 28.8705 112.13 29.1783C111.856 29.483 111.505 29.7199 111.077 29.8892C110.649 30.0554 110.16 30.1385 109.609 30.1385ZM114.176 30V22.9091H115.796V24.0909H115.87C116 23.6816 116.221 23.3661 116.535 23.1445C116.852 22.9199 117.214 22.8075 117.62 22.8075C117.712 22.8075 117.815 22.8121 117.929 22.8214C118.046 22.8275 118.143 22.8383 118.22 22.8537V24.391C118.149 24.3664 118.037 24.3448 117.883 24.3263C117.732 24.3048 117.586 24.294 117.445 24.294C117.14 24.294 116.866 24.3602 116.623 24.4925C116.383 24.6218 116.193 24.8018 116.055 25.0327C115.916 25.2635 115.847 25.5297 115.847 25.8313V30H114.176Z" fill="white"/>
<path d="M18 30C23.5228 30 28 25.5228 28 20C28 14.4772 23.5228 10 18 10C12.4772 10 8 14.4772 8 20C8 25.5228 12.4772 30 18 30Z" stroke="white" stroke-width="2" stroke-linecap="round" stroke-linejoin="round"/>
<path d="M18 10C15.4322 12.6962 14 16.2767 14 20C14 23.7233 15.4322 27.3038 18 30C20.5678 27.3038 22 23.7233 22 20C22 16.2767 20.5678 12.6962 18 10Z" stroke="white" stroke-width="2" stroke-linecap="round" stroke-linejoin="round"/>
<path d="M8 20H28" stroke="white" stroke-width="2" stroke-linecap="round" stroke-linejoin="round"/>
</svg>
