<svg width="127" height="40" viewBox="0 0 127 40" fill="none" xmlns="http://www.w3.org/2000/svg">
<rect x="0.5" y="0.5" width="126" height="39" rx="6.5" fill="black" stroke="#A6A6A6"/>
<path d="M35.5739 14.5V8.68182H37.7557C38.2027 8.68182 38.5777 8.75947 38.8807 8.91477C39.1856 9.07008 39.4157 9.28788 39.571 9.56818C39.7282 9.84659 39.8068 10.1714 39.8068 10.5426C39.8068 10.9157 39.7273 11.2396 39.5682 11.5142C39.411 11.7869 39.179 11.9981 38.8722 12.1477C38.5653 12.2955 38.1884 12.3693 37.7415 12.3693H36.1875V11.4943H37.5994C37.8608 11.4943 38.0748 11.4583 38.2415 11.3864C38.4081 11.3125 38.5313 11.2055 38.6108 11.0653C38.6922 10.9233 38.733 10.7491 38.733 10.5426C38.733 10.3362 38.6922 10.16 38.6108 10.0142C38.5294 9.86648 38.4053 9.75473 38.2386 9.67898C38.072 9.60133 37.857 9.5625 37.5938 9.5625H36.6278V14.5H35.5739ZM38.5795 11.8636L40.0199 14.5H38.8438L37.429 11.8636H38.5795ZM42.5724 14.5852C42.1463 14.5852 41.777 14.4915 41.4645 14.304C41.152 14.1165 40.9096 13.8542 40.7372 13.517C40.5668 13.1799 40.4815 12.786 40.4815 12.3352C40.4815 11.8845 40.5668 11.4896 40.7372 11.1506C40.9096 10.8116 41.152 10.5483 41.4645 10.3608C41.777 10.1733 42.1463 10.0795 42.5724 10.0795C42.9986 10.0795 43.3679 10.1733 43.6804 10.3608C43.9929 10.5483 44.2344 10.8116 44.4048 11.1506C44.5772 11.4896 44.6634 11.8845 44.6634 12.3352C44.6634 12.786 44.5772 13.1799 44.4048 13.517C44.2344 13.8542 43.9929 14.1165 43.6804 14.304C43.3679 14.4915 42.9986 14.5852 42.5724 14.5852ZM42.5781 13.7614C42.8092 13.7614 43.0024 13.6979 43.1577 13.571C43.313 13.4422 43.4285 13.2699 43.5043 13.054C43.5819 12.8381 43.6207 12.5975 43.6207 12.3324C43.6207 12.0653 43.5819 11.8239 43.5043 11.608C43.4285 11.3902 43.313 11.2169 43.1577 11.0881C43.0024 10.9593 42.8092 10.8949 42.5781 10.8949C42.3414 10.8949 42.1444 10.9593 41.9872 11.0881C41.8319 11.2169 41.7154 11.3902 41.6378 11.608C41.562 11.8239 41.5241 12.0653 41.5241 12.3324C41.5241 12.5975 41.562 12.8381 41.6378 13.054C41.7154 13.2699 41.8319 13.4422 41.9872 13.571C42.1444 13.6979 42.3414 13.7614 42.5781 13.7614ZM42.1776 9.5625L42.8139 8.2642H43.8196L42.9474 9.5625H42.1776ZM46.3118 14.5L45.0788 10.1364H46.1271L46.8942 13.2045H46.9339L47.718 10.1364H48.755L49.5391 13.1875H49.5817L50.3374 10.1364H51.3885L50.1527 14.5H49.0817L48.2635 11.5511H48.2038L47.3857 14.5H46.3118ZM53.1349 11.9432V14.5H52.1065V10.1364H53.0895V10.8778H53.1406C53.241 10.6335 53.401 10.4394 53.6207 10.2955C53.8423 10.1515 54.116 10.0795 54.4418 10.0795C54.7429 10.0795 55.0052 10.1439 55.2287 10.2727C55.4541 10.4015 55.6283 10.5881 55.7514 10.8324C55.8764 11.0767 55.938 11.3731 55.9361 11.7216V14.5H54.9077V11.8807C54.9077 11.589 54.8319 11.3608 54.6804 11.196C54.5308 11.0312 54.3234 10.9489 54.0582 10.9489C53.8783 10.9489 53.7183 10.9886 53.5781 11.0682C53.4399 11.1458 53.331 11.2585 53.2514 11.4062C53.1738 11.554 53.1349 11.733 53.1349 11.9432ZM56.9815 14.5V10.1364H58.0099V14.5H56.9815ZM57.4986 9.51705C57.3357 9.51705 57.1955 9.46307 57.0781 9.35511C56.9607 9.24526 56.902 9.11364 56.902 8.96023C56.902 8.80492 56.9607 8.6733 57.0781 8.56534C57.1955 8.45549 57.3357 8.40057 57.4986 8.40057C57.6634 8.40057 57.8035 8.45549 57.919 8.56534C58.0365 8.6733 58.0952 8.80492 58.0952 8.96023C58.0952 9.11364 58.0365 9.24526 57.919 9.35511C57.8035 9.46307 57.6634 9.51705 57.4986 9.51705ZM60.9993 14.5852C60.5618 14.5852 60.1839 14.4943 59.8658 14.3125C59.5495 14.1288 59.3061 13.8693 59.1357 13.5341C58.9652 13.197 58.88 12.8002 58.88 12.3438C58.88 11.8949 58.9652 11.5009 59.1357 11.1619C59.308 10.821 59.5485 10.5559 59.8572 10.3665C60.166 10.1752 60.5286 10.0795 60.9453 10.0795C61.2143 10.0795 61.468 10.1231 61.7067 10.2102C61.9472 10.2955 62.1593 10.428 62.343 10.608C62.5286 10.7879 62.6745 11.017 62.7805 11.2955C62.8866 11.572 62.9396 11.9015 62.9396 12.2841V12.5994H59.3629V11.9062H61.9538C61.9519 11.7093 61.9093 11.5341 61.826 11.3807C61.7427 11.2254 61.6262 11.1032 61.4766 11.0142C61.3288 10.9252 61.1565 10.8807 60.9595 10.8807C60.7493 10.8807 60.5646 10.9318 60.4055 11.0341C60.2464 11.1345 60.1224 11.267 60.0334 11.4318C59.9463 11.5947 59.9018 11.7737 59.8999 11.9688V12.5739C59.8999 12.8277 59.9463 13.0455 60.0391 13.2273C60.1319 13.4072 60.2616 13.5455 60.4283 13.642C60.5949 13.7367 60.79 13.7841 61.0135 13.7841C61.1631 13.7841 61.2985 13.7633 61.4197 13.7216C61.541 13.678 61.6461 13.6146 61.7351 13.5312C61.8241 13.4479 61.8913 13.3447 61.9368 13.2216L62.897 13.3295C62.8364 13.5833 62.7209 13.8049 62.5504 13.9943C62.3819 14.1818 62.166 14.3277 61.9027 14.4318C61.6394 14.5341 61.3383 14.5852 60.9993 14.5852ZM63.7528 14.5V13.8466L66.0028 11.0256V10.9886H63.8267V10.1364H67.2614V10.8381L65.1193 13.6108V13.6477H67.3352V14.5H63.7528ZM65.5227 9.51705C65.358 9.51705 65.2169 9.46307 65.0994 9.35511C64.9839 9.24526 64.9261 9.11364 64.9261 8.96023C64.9261 8.80492 64.9848 8.6733 65.1023 8.56534C65.2197 8.45549 65.3598 8.40057 65.5227 8.40057C65.6856 8.40057 65.8248 8.45549 65.9403 8.56534C66.0578 8.6733 66.1165 8.80492 66.1165 8.96023C66.1165 9.11364 66.0578 9.24526 65.9403 9.35511C65.8248 9.46307 65.6856 9.51705 65.5227 9.51705ZM71.3146 11.9432V14.5H70.2862V10.1364H71.2692V10.8778H71.3203C71.4207 10.6335 71.5807 10.4394 71.8004 10.2955C72.022 10.1515 72.2957 10.0795 72.6214 10.0795C72.9226 10.0795 73.1849 10.1439 73.4084 10.2727C73.6338 10.4015 73.808 10.5881 73.9311 10.8324C74.0561 11.0767 74.1177 11.3731 74.1158 11.7216V14.5H73.0874V11.8807C73.0874 11.589 73.0116 11.3608 72.8601 11.196C72.7105 11.0312 72.5031 10.9489 72.2379 10.9489C72.058 10.9489 71.898 10.9886 71.7578 11.0682C71.6196 11.1458 71.5107 11.2585 71.4311 11.4062C71.3535 11.554 71.3146 11.733 71.3146 11.9432ZM76.4169 14.5881C76.1404 14.5881 75.8913 14.5388 75.6697 14.4403C75.45 14.34 75.2758 14.1922 75.147 13.9972C75.0201 13.8021 74.9567 13.5616 74.9567 13.2756C74.9567 13.0294 75.0021 12.8258 75.093 12.6648C75.1839 12.5038 75.308 12.375 75.4652 12.2784C75.6224 12.1818 75.7995 12.1089 75.9964 12.0597C76.1953 12.0085 76.4008 11.9716 76.6129 11.9489C76.8686 11.9223 77.076 11.8987 77.2351 11.8778C77.3942 11.8551 77.5097 11.821 77.5817 11.7756C77.6555 11.7282 77.6925 11.6553 77.6925 11.5568V11.5398C77.6925 11.3258 77.629 11.16 77.5021 11.0426C77.3752 10.9252 77.1925 10.8665 76.9538 10.8665C76.7019 10.8665 76.5021 10.9214 76.3544 11.0312C76.2086 11.1411 76.1101 11.2708 76.0589 11.4205L75.0987 11.2841C75.1745 11.0189 75.2995 10.7973 75.4737 10.6193C75.648 10.4394 75.861 10.3049 76.1129 10.2159C76.3648 10.125 76.6432 10.0795 76.9482 10.0795C77.1584 10.0795 77.3677 10.1042 77.576 10.1534C77.7843 10.2027 77.9747 10.2841 78.147 10.3977C78.3194 10.5095 78.4576 10.6619 78.5618 10.8551C78.6679 11.0483 78.7209 11.2898 78.7209 11.5795V14.5H77.7322V13.9006H77.6982C77.6357 14.0218 77.5476 14.1354 77.4339 14.2415C77.3222 14.3456 77.1811 14.4299 77.0107 14.4943C76.8421 14.5568 76.6442 14.5881 76.4169 14.5881ZM76.6839 13.8324C76.8904 13.8324 77.0694 13.7917 77.2209 13.7102C77.3724 13.6269 77.4889 13.517 77.5703 13.3807C77.6536 13.2443 77.6953 13.0956 77.6953 12.9347V12.4205C77.6631 12.447 77.6082 12.4716 77.5305 12.4943C77.4548 12.517 77.3696 12.5369 77.2749 12.554C77.1802 12.571 77.0864 12.5862 76.9936 12.5994C76.9008 12.6127 76.8203 12.6241 76.7521 12.6335C76.5987 12.6544 76.4614 12.6884 76.3402 12.7358C76.219 12.7831 76.1233 12.8494 76.0533 12.9347C75.9832 13.018 75.9482 13.1259 75.9482 13.2585C75.9482 13.4479 76.0173 13.5909 76.1555 13.6875C76.2938 13.7841 76.4699 13.8324 76.6839 13.8324Z" fill="white"/>
<path d="M36.0387 30V20.5455H39.4087C40.1443 20.5455 40.7537 20.6793 41.2369 20.9471C41.7201 21.2148 42.0817 21.5811 42.3217 22.0458C42.5618 22.5075 42.6818 23.0276 42.6818 23.6062C42.6818 24.1879 42.5603 24.7111 42.3171 25.1758C42.0771 25.6374 41.7139 26.0037 41.2276 26.2745C40.7444 26.5423 40.1366 26.6761 39.4041 26.6761H37.0866V25.4666H39.2749C39.7396 25.4666 40.1166 25.3866 40.4059 25.2266C40.6952 25.0634 40.9076 24.8419 41.043 24.5618C41.1784 24.2817 41.2461 23.9632 41.2461 23.6062C41.2461 23.2492 41.1784 22.9322 41.043 22.6552C40.9076 22.3782 40.6937 22.1612 40.4013 22.0043C40.112 21.8473 39.7304 21.7688 39.2564 21.7688H37.4652V30H36.0387ZM44.2433 30V22.9091H45.5775V24.0355H45.6514C45.7806 23.6539 46.0084 23.3538 46.3346 23.1353C46.6639 22.9137 47.0363 22.8029 47.4518 22.8029C47.538 22.8029 47.6395 22.806 47.7565 22.8121C47.8765 22.8183 47.9704 22.826 48.0381 22.8352V24.1555C47.9827 24.1402 47.8842 24.1232 47.7426 24.1048C47.6011 24.0832 47.4595 24.0724 47.3179 24.0724C46.9917 24.0724 46.7008 24.1417 46.4454 24.2802C46.193 24.4156 45.993 24.6049 45.8453 24.848C45.6975 25.0881 45.6237 25.362 45.6237 25.6697V30H44.2433ZM49.0849 30V29.0536L52.9258 24.174V24.1094H49.2095V22.9091H54.6477V23.9155L50.9545 28.7351V28.7997H54.777V30H49.0849ZM59.2584 30.1431C58.5598 30.1431 57.9581 29.9938 57.4534 29.6953C56.9517 29.3937 56.564 28.9705 56.29 28.4258C56.0192 27.878 55.8838 27.2363 55.8838 26.5007C55.8838 25.7744 56.0192 25.1342 56.29 24.5803C56.564 24.0263 56.9456 23.5939 57.4349 23.283C57.9273 22.9722 58.5029 22.8168 59.1615 22.8168C59.5616 22.8168 59.9494 22.8829 60.3248 23.0153C60.7003 23.1476 61.0373 23.3554 61.3358 23.6385C61.6344 23.9216 61.8698 24.2894 62.0422 24.7418C62.2145 25.1912 62.3007 25.7375 62.3007 26.3807V26.87H56.664V25.8359H60.9481C60.9481 25.4728 60.8742 25.1512 60.7265 24.8711C60.5787 24.5879 60.371 24.3648 60.1032 24.2017C59.8386 24.0386 59.5277 23.957 59.1707 23.957C58.7829 23.957 58.4444 24.0524 58.1551 24.2433C57.8689 24.431 57.6473 24.6772 57.4903 24.9819C57.3364 25.2835 57.2595 25.6113 57.2595 25.9652V26.7731C57.2595 27.247 57.3426 27.6502 57.5088 27.9826C57.6781 28.315 57.9135 28.5689 58.2151 28.7443C58.5167 28.9167 58.8691 29.0028 59.2723 29.0028C59.5339 29.0028 59.7724 28.9659 59.9878 28.892C60.2033 28.8151 60.3895 28.7012 60.5464 28.5504C60.7034 28.3996 60.8234 28.2134 60.9065 27.9918L62.213 28.2273C62.1083 28.612 61.9206 28.949 61.6498 29.2383C61.382 29.5245 61.045 29.7476 60.6388 29.9077C60.2356 30.0646 59.7755 30.1431 59.2584 30.1431ZM66.8052 32.8068C66.242 32.8068 65.7573 32.733 65.351 32.5852C64.9479 32.4375 64.6185 32.2421 64.3631 31.9989C64.1077 31.7558 63.9168 31.4896 63.7907 31.2003L64.9771 30.7109C65.0602 30.8464 65.171 30.9895 65.3095 31.1403C65.4511 31.2942 65.6419 31.425 65.8819 31.5327C66.1251 31.6404 66.4374 31.6942 66.8191 31.6942C67.3423 31.6942 67.7747 31.5665 68.1163 31.3111C68.4579 31.0587 68.6287 30.6555 68.6287 30.1016V28.7074H68.541C68.4579 28.8582 68.3379 29.0259 68.1809 29.2106C68.027 29.3952 67.8147 29.5553 67.5439 29.6907C67.273 29.8261 66.9206 29.8938 66.4867 29.8938C65.9266 29.8938 65.4218 29.763 64.9725 29.5014C64.5262 29.2367 64.1723 28.8474 63.9107 28.3335C63.6522 27.8164 63.5229 27.1809 63.5229 26.4268C63.5229 25.6728 63.6506 25.0265 63.9061 24.4879C64.1646 23.9493 64.5185 23.5369 64.9679 23.2507C65.4172 22.9614 65.9266 22.8168 66.4959 22.8168C66.936 22.8168 67.2915 22.8906 67.5623 23.0384C67.8332 23.183 68.044 23.3523 68.1948 23.5462C68.3487 23.7401 68.4672 23.9109 68.5502 24.0586H68.6518V22.9091H70.0044V30.157C70.0044 30.7663 69.8629 31.2665 69.5797 31.6573C69.2966 32.0482 68.9134 32.3375 68.4302 32.5252C67.9501 32.7129 67.4084 32.8068 66.8052 32.8068ZM66.7914 28.7489C67.1884 28.7489 67.5239 28.6566 67.7978 28.4719C68.0748 28.2842 68.284 28.0165 68.4256 27.6687C68.5703 27.3178 68.6426 26.8977 68.6426 26.4084C68.6426 25.9313 68.5718 25.5112 68.4302 25.1481C68.2886 24.7849 68.0809 24.5018 67.807 24.2987C67.5331 24.0924 67.1945 23.9893 66.7914 23.9893C66.3759 23.9893 66.0297 24.0971 65.7527 24.3125C65.4757 24.5249 65.2664 24.8142 65.1248 25.1804C64.9863 25.5466 64.9171 25.956 64.9171 26.4084C64.9171 26.8731 64.9879 27.2809 65.1294 27.6317C65.271 27.9826 65.4803 28.2565 65.7573 28.4535C66.0373 28.6504 66.382 28.7489 66.7914 28.7489ZM73.236 20.5455V30H71.8556V20.5455H73.236ZM77.1565 30.157C76.7072 30.157 76.3009 30.0739 75.9378 29.9077C75.5746 29.7384 75.2868 29.4937 75.0745 29.1737C74.8652 28.8536 74.7606 28.4612 74.7606 27.9964C74.7606 27.5964 74.8375 27.267 74.9914 27.0085C75.1453 26.75 75.353 26.5453 75.6146 26.3945C75.8762 26.2437 76.1686 26.1299 76.4917 26.0529C76.8149 25.976 77.1442 25.9175 77.4797 25.8775C77.9044 25.8282 78.2491 25.7882 78.5138 25.7575C78.7784 25.7236 78.9708 25.6697 79.0908 25.5959C79.2108 25.522 79.2709 25.402 79.2709 25.2358V25.2035C79.2709 24.8003 79.157 24.4879 78.9292 24.2663C78.7046 24.0447 78.3691 23.9339 77.9229 23.9339C77.4581 23.9339 77.0919 24.037 76.8241 24.2433C76.5595 24.4464 76.3763 24.6726 76.2748 24.9219L74.9775 24.6264C75.1314 24.1955 75.3561 23.8478 75.6515 23.5831C75.9501 23.3153 76.2932 23.1214 76.681 23.0014C77.0688 22.8783 77.4766 22.8168 77.9044 22.8168C78.1875 22.8168 78.4876 22.8506 78.8046 22.9183C79.1247 22.983 79.4232 23.103 79.7002 23.2784C79.9803 23.4538 80.2095 23.7047 80.3881 24.0309C80.5666 24.354 80.6558 24.7741 80.6558 25.2912V30H79.3078V29.0305H79.2524C79.1631 29.209 79.0293 29.3845 78.8508 29.5568C78.6723 29.7292 78.443 29.8723 78.1629 29.9862C77.8828 30.1 77.5474 30.157 77.1565 30.157ZM77.4566 29.049C77.8382 29.049 78.1644 28.9736 78.4353 28.8228C78.7092 28.672 78.9169 28.475 79.0585 28.2319C79.2032 27.9857 79.2755 27.7225 79.2755 27.4425V26.5284C79.2262 26.5777 79.1308 26.6238 78.9893 26.6669C78.8508 26.7069 78.6923 26.7423 78.5138 26.7731C78.3353 26.8008 78.1614 26.8269 77.9921 26.8516C77.8228 26.8731 77.6813 26.8916 77.5674 26.907C77.2996 26.9408 77.055 26.9978 76.8334 27.0778C76.6148 27.1578 76.4394 27.2732 76.3071 27.424C76.1778 27.5717 76.1132 27.7687 76.1132 28.0149C76.1132 28.3565 76.2394 28.6151 76.4917 28.7905C76.7441 28.9628 77.0657 29.049 77.4566 29.049ZM79.7741 32.7283C79.3863 32.7283 79.0631 32.6237 78.8046 32.4144C78.5492 32.2082 78.4091 31.9066 78.3845 31.5096C78.3691 31.2757 78.4076 31.0402 78.4999 30.8033C78.5922 30.5663 78.7477 30.3416 78.9662 30.1293C79.1847 29.9169 79.474 29.7292 79.8341 29.5661L80.6558 30C80.3727 30.1816 80.128 30.3739 79.9218 30.5771C79.7156 30.7802 79.6125 31.011 79.6125 31.2695C79.6125 31.4111 79.6479 31.5219 79.7187 31.6019C79.7894 31.6819 79.911 31.7219 80.0834 31.7219C80.2095 31.7219 80.3219 31.705 80.4204 31.6712C80.5189 31.6373 80.5989 31.605 80.6604 31.5742L80.7805 32.4513C80.6727 32.516 80.5342 32.5775 80.365 32.636C80.1988 32.6976 80.0018 32.7283 79.7741 32.7283ZM85.1488 30.1385C84.5763 30.1385 84.0655 29.9923 83.6161 29.6999C83.1699 29.4045 82.819 28.9844 82.5636 28.4396C82.3112 27.8918 82.185 27.2347 82.185 26.4684C82.185 25.7021 82.3127 25.0465 82.5682 24.5018C82.8267 23.957 83.1806 23.54 83.63 23.2507C84.0793 22.9614 84.5887 22.8168 85.158 22.8168C85.5981 22.8168 85.9521 22.8906 86.2198 23.0384C86.4906 23.183 86.6999 23.3523 86.8477 23.5462C86.9985 23.7401 87.1154 23.9109 87.1985 24.0586H87.2816V20.5455H88.6619V30H87.3139V28.8967H87.1985C87.1154 29.0475 86.9954 29.2198 86.8384 29.4137C86.6845 29.6076 86.4722 29.7769 86.2013 29.9215C85.9305 30.0662 85.5797 30.1385 85.1488 30.1385ZM85.4535 28.9613C85.8505 28.9613 86.186 28.8567 86.4599 28.6474C86.7369 28.435 86.9461 28.1411 87.0877 27.7656C87.2324 27.3902 87.3047 26.9531 87.3047 26.4545C87.3047 25.9621 87.2339 25.5312 87.0923 25.1619C86.9508 24.7926 86.743 24.5049 86.4691 24.2987C86.1952 24.0924 85.8567 23.9893 85.4535 23.9893C85.038 23.9893 84.6918 24.0971 84.4148 24.3125C84.1378 24.5279 83.9285 24.8219 83.7869 25.1942C83.6484 25.5666 83.5792 25.9867 83.5792 26.4545C83.5792 26.9285 83.65 27.3548 83.7915 27.7333C83.9331 28.1119 84.1424 28.4119 84.4194 28.6335C84.6995 28.852 85.0442 28.9613 85.4535 28.9613ZM92.6956 30.157C92.2462 30.157 91.84 30.0739 91.4768 29.9077C91.1137 29.7384 90.8259 29.4937 90.6135 29.1737C90.4043 28.8536 90.2996 28.4612 90.2996 27.9964C90.2996 27.5964 90.3766 27.267 90.5305 27.0085C90.6843 26.75 90.8921 26.5453 91.1537 26.3945C91.4153 26.2437 91.7077 26.1299 92.0308 26.0529C92.354 25.976 92.6833 25.9175 93.0187 25.8775C93.4434 25.8282 93.7881 25.7882 94.0528 25.7575C94.3175 25.7236 94.5099 25.6697 94.6299 25.5959C94.7499 25.522 94.8099 25.402 94.8099 25.2358V25.2035C94.8099 24.8003 94.6961 24.4879 94.4683 24.2663C94.2436 24.0447 93.9082 23.9339 93.4619 23.9339C92.9972 23.9339 92.6309 24.037 92.3632 24.2433C92.0985 24.4464 91.9154 24.6726 91.8138 24.9219L90.5166 24.6264C90.6705 24.1955 90.8952 23.8478 91.1906 23.5831C91.4891 23.3153 91.8323 23.1214 92.2201 23.0014C92.6079 22.8783 93.0157 22.8168 93.4434 22.8168C93.7266 22.8168 94.0267 22.8506 94.3437 22.9183C94.6637 22.983 94.9623 23.103 95.2393 23.2784C95.5193 23.4538 95.7486 23.7047 95.9271 24.0309C96.1056 24.354 96.1949 24.7741 96.1949 25.2912V30H94.8469V29.0305H94.7915C94.7022 29.209 94.5683 29.3845 94.3898 29.5568C94.2113 29.7292 93.982 29.8723 93.702 29.9862C93.4219 30.1 93.0864 30.157 92.6956 30.157ZM92.9956 29.049C93.3773 29.049 93.7035 28.9736 93.9743 28.8228C94.2483 28.672 94.456 28.475 94.5976 28.2319C94.7422 27.9857 94.8145 27.7225 94.8145 27.4425V26.5284C94.7653 26.5777 94.6699 26.6238 94.5283 26.6669C94.3898 26.7069 94.2313 26.7423 94.0528 26.7731C93.8743 26.8008 93.7004 26.8269 93.5312 26.8516C93.3619 26.8731 93.2203 26.8916 93.1064 26.907C92.8387 26.9408 92.594 26.9978 92.3724 27.0778C92.1539 27.1578 91.9785 27.2732 91.8461 27.424C91.7169 27.5717 91.6523 27.7687 91.6523 28.0149C91.6523 28.3565 91.7784 28.6151 92.0308 28.7905C92.2832 28.9628 92.6048 29.049 92.9956 29.049ZM98.0334 30V22.9091H99.3675V24.0355H99.4414C99.5707 23.6539 99.7984 23.3538 100.125 23.1353C100.454 22.9137 100.826 22.8029 101.242 22.8029C101.328 22.8029 101.43 22.806 101.547 22.8121C101.667 22.8183 101.76 22.826 101.828 22.8352V24.1555C101.773 24.1402 101.674 24.1232 101.533 24.1048C101.391 24.0832 101.25 24.0724 101.108 24.0724C100.782 24.0724 100.491 24.1417 100.235 24.2802C99.9831 24.4156 99.783 24.6049 99.6353 24.848C99.4876 25.0881 99.4137 25.362 99.4137 25.6697V30H98.0334ZM105.756 30.1431C105.069 30.1431 104.478 29.9877 103.983 29.6768C103.49 29.3629 103.112 28.9305 102.847 28.3796C102.583 27.8287 102.45 27.1978 102.45 26.4869C102.45 25.7667 102.586 25.1312 102.856 24.5803C103.127 24.0263 103.509 23.5939 104.001 23.283C104.494 22.9722 105.074 22.8168 105.742 22.8168C106.28 22.8168 106.76 22.9168 107.182 23.1168C107.604 23.3138 107.944 23.5908 108.202 23.9478C108.464 24.3048 108.619 24.7218 108.669 25.1989H107.325C107.251 24.8665 107.082 24.5803 106.817 24.3402C106.556 24.1001 106.205 23.9801 105.765 23.9801C105.38 23.9801 105.043 24.0817 104.754 24.2848C104.468 24.4848 104.244 24.7711 104.084 25.1435C103.924 25.5128 103.844 25.9498 103.844 26.4545C103.844 26.9716 103.923 27.4179 104.08 27.7933C104.237 28.1688 104.458 28.4596 104.745 28.6658C105.034 28.872 105.374 28.9751 105.765 28.9751C106.026 28.9751 106.263 28.9274 106.476 28.832C106.691 28.7335 106.871 28.5935 107.016 28.4119C107.164 28.2304 107.267 28.0118 107.325 27.7564H108.669C108.619 28.215 108.47 28.6243 108.221 28.9844C107.972 29.3445 107.638 29.6276 107.219 29.8338C106.804 30.04 106.316 30.1431 105.756 30.1431ZM113.201 30.1431C112.502 30.1431 111.901 29.9938 111.396 29.6953C110.894 29.3937 110.506 28.9705 110.232 28.4258C109.962 27.878 109.826 27.2363 109.826 26.5007C109.826 25.7744 109.962 25.1342 110.232 24.5803C110.506 24.0263 110.888 23.5939 111.377 23.283C111.87 22.9722 112.445 22.8168 113.104 22.8168C113.504 22.8168 113.892 22.8829 114.267 23.0153C114.643 23.1476 114.98 23.3554 115.278 23.6385C115.577 23.9216 115.812 24.2894 115.985 24.7418C116.157 25.1912 116.243 25.7375 116.243 26.3807V26.87H110.606V25.8359H114.89C114.89 25.4728 114.817 25.1512 114.669 24.8711C114.521 24.5879 114.313 24.3648 114.046 24.2017C113.781 24.0386 113.47 23.957 113.113 23.957C112.725 23.957 112.387 24.0524 112.097 24.2433C111.811 24.431 111.59 24.6772 111.433 24.9819C111.279 25.2835 111.202 25.6113 111.202 25.9652V26.7731C111.202 27.247 111.285 27.6502 111.451 27.9826C111.62 28.315 111.856 28.5689 112.157 28.7443C112.459 28.9167 112.811 29.0028 113.215 29.0028C113.476 29.0028 113.715 28.9659 113.93 28.892C114.146 28.8151 114.332 28.7012 114.489 28.5504C114.646 28.3996 114.766 28.2134 114.849 27.9918L116.155 28.2273C116.051 28.612 115.863 28.949 115.592 29.2383C115.324 29.5245 114.987 29.7476 114.581 29.9077C114.178 30.0646 113.718 30.1431 113.201 30.1431Z" fill="white"/>
<path d="M18 30C23.5228 30 28 25.5228 28 20C28 14.4772 23.5228 10 18 10C12.4772 10 8 14.4772 8 20C8 25.5228 12.4772 30 18 30Z" stroke="white" stroke-width="2" stroke-linecap="round" stroke-linejoin="round"/>
<path d="M18 10C15.4322 12.6962 14 16.2767 14 20C14 23.7233 15.4322 27.3038 18 30C20.5678 27.3038 22 23.7233 22 20C22 16.2767 20.5678 12.6962 18 10Z" stroke="white" stroke-width="2" stroke-linecap="round" stroke-linejoin="round"/>
<path d="M8 20H28" stroke="white" stroke-width="2" stroke-linecap="round" stroke-linejoin="round"/>
</svg>
