<svg width="25" height="25" viewBox="0 0 25 25" fill="none" xmlns="http://www.w3.org/2000/svg">
<path d="M14.856 6.053C15.1336 6.19172 15.4397 6.26393 15.75 6.26393C16.0603 6.26393 16.3664 6.19172 16.644 6.053L20.303 4.223C20.4556 4.14676 20.6251 4.11081 20.7955 4.11857C20.9659 4.12633 21.1314 4.17754 21.2765 4.26733C21.4215 4.35712 21.5411 4.48251 21.624 4.63158C21.7069 4.78065 21.7503 4.94844 21.75 5.119V17.883C21.7499 18.0687 21.6981 18.2506 21.6005 18.4085C21.5028 18.5664 21.3631 18.694 21.197 18.777L16.644 21.054C16.3664 21.1927 16.0603 21.2649 15.75 21.2649C15.4397 21.2649 15.1336 21.1927 14.856 21.054L10.644 18.948C10.3664 18.8093 10.0603 18.7371 9.75 18.7371C9.43967 18.7371 9.1336 18.8093 8.856 18.948L5.197 20.778C5.04436 20.8543 4.87473 20.8902 4.70426 20.8824C4.53379 20.8746 4.36816 20.8233 4.22312 20.7334C4.07808 20.6435 3.95846 20.518 3.87565 20.3688C3.79284 20.2196 3.74958 20.0516 3.75 19.881V7.118C3.7501 6.93234 3.80189 6.75037 3.89956 6.59247C3.99722 6.43458 4.13692 6.30699 4.303 6.224L8.856 3.947C9.1336 3.80828 9.43967 3.73607 9.75 3.73607C10.0603 3.73607 10.3664 3.80828 10.644 3.947L14.856 6.053Z" stroke="white" stroke-width="2" stroke-linecap="round" stroke-linejoin="round"/>
<path d="M15.75 6.26401V21.264" stroke="white" stroke-width="2" stroke-linecap="round" stroke-linejoin="round"/>
<path d="M9.75 3.73599V18.736" stroke="white" stroke-width="2" stroke-linecap="round" stroke-linejoin="round"/>
</svg>
