<svg width="25" height="25" viewBox="0 0 25 25" fill="none" xmlns="http://www.w3.org/2000/svg">
<path d="M7.5 3.5H4.5C3.94772 3.5 3.5 3.94772 3.5 4.5V7.5C3.5 8.05228 3.94772 8.5 4.5 8.5H7.5C8.05228 8.5 8.5 8.05228 8.5 7.5V4.5C8.5 3.94772 8.05228 3.5 7.5 3.5Z" stroke="white" stroke-width="2" stroke-linecap="round" stroke-linejoin="round"/>
<path d="M20.5 3.5H17.5C16.9477 3.5 16.5 3.94772 16.5 4.5V7.5C16.5 8.05228 16.9477 8.5 17.5 8.5H20.5C21.0523 8.5 21.5 8.05228 21.5 7.5V4.5C21.5 3.94772 21.0523 3.5 20.5 3.5Z" stroke="white" stroke-width="2" stroke-linecap="round" stroke-linejoin="round"/>
<path d="M7.5 16.5H4.5C3.94772 16.5 3.5 16.9477 3.5 17.5V20.5C3.5 21.0523 3.94772 21.5 4.5 21.5H7.5C8.05228 21.5 8.5 21.0523 8.5 20.5V17.5C8.5 16.9477 8.05228 16.5 7.5 16.5Z" stroke="white" stroke-width="2" stroke-linecap="round" stroke-linejoin="round"/>
<path d="M21.5 16.5H18.5C17.9696 16.5 17.4609 16.7107 17.0858 17.0858C16.7107 17.4609 16.5 17.9696 16.5 18.5V21.5" stroke="white" stroke-width="2" stroke-linecap="round" stroke-linejoin="round"/>
<path d="M21.5 21.5V21.51" stroke="white" stroke-width="2" stroke-linecap="round" stroke-linejoin="round"/>
<path d="M12.5 7.5V10.5C12.5 11.0304 12.2893 11.5391 11.9142 11.9142C11.5391 12.2893 11.0304 12.5 10.5 12.5H7.5" stroke="white" stroke-width="2" stroke-linecap="round" stroke-linejoin="round"/>
<path d="M3.5 12.5H3.51" stroke="white" stroke-width="2" stroke-linecap="round" stroke-linejoin="round"/>
<path d="M12.5 3.5H12.51" stroke="white" stroke-width="2" stroke-linecap="round" stroke-linejoin="round"/>
<path d="M12.5 16.5V16.51" stroke="white" stroke-width="2" stroke-linecap="round" stroke-linejoin="round"/>
<path d="M16.5 12.5H17.5" stroke="white" stroke-width="2" stroke-linecap="round" stroke-linejoin="round"/>
<path d="M21.5 12.5V12.51" stroke="white" stroke-width="2" stroke-linecap="round" stroke-linejoin="round"/>
<path d="M12.5 21.5V20.5" stroke="white" stroke-width="2" stroke-linecap="round" stroke-linejoin="round"/>
</svg>
