<svg width="30" height="31" viewBox="0 0 30 31" fill="none" xmlns="http://www.w3.org/2000/svg">
<path d="M5 23H10C10.6875 23 11.25 22.4375 11.25 21.75C11.25 21.0625 10.6875 20.5 10 20.5H5C4.3125 20.5 3.75 21.0625 3.75 21.75C3.75 22.4375 4.3125 23 5 23ZM3.75 9.25C3.75 9.9375 4.3125 10.5 5 10.5H25C25.6875 10.5 26.25 9.9375 26.25 9.25C26.25 8.5625 25.6875 8 25 8H5C4.3125 8 3.75 8.5625 3.75 9.25ZM5 16.75H17.5C18.1875 16.75 18.75 16.1875 18.75 15.5C18.75 14.8125 18.1875 14.25 17.5 14.25H5C4.3125 14.25 3.75 14.8125 3.75 15.5C3.75 16.1875 4.3125 16.75 5 16.75Z" fill="black"/>
</svg>
