<svg xmlns="http://www.w3.org/2000/svg" xmlns:xlink="http://www.w3.org/1999/xlink" width="500" zoomAndPan="magnify" viewBox="0 0 375 374.999991" height="500" preserveAspectRatio="xMidYMid meet" version="1.0"><path fill="#000000" d="M 267.5 56.609375 C 267.5 56.609375 267.5 72.769531 267.5 72.589844 L 288.886719 72.589844 L 288.886719 56.609375 C 288.886719 56.609375 299.328125 56.609375 299.492188 56.609375 L 299.492188 96.667969 L 288.886719 96.667969 L 288.886719 78.988281 L 267.5 78.988281 L 267.5 96.667969 L 256.71875 96.667969 L 256.71875 56.609375 Z M 267.5 56.609375 " fill-opacity="1" fill-rule="nonzero"/><path fill="#000000" d="M 166.667969 56.609375 L 166.667969 63.347656 L 150.503906 63.347656 L 150.503906 96.667969 L 139.722656 96.667969 L 139.722656 63.347656 L 123.734375 63.347656 L 123.734375 56.609375 L 166.667969 56.609375 " fill-opacity="1" fill-rule="nonzero"/><path fill="#000000" d="M 182.816406 63.347656 L 175.414062 81.347656 L 190.058594 81.347656 Z M 208.078125 96.667969 C 208.078125 96.667969 196.132812 96.667969 196.457031 96.667969 L 192.917969 87.910156 L 173.050781 87.910156 L 169.511719 96.667969 L 157.890625 96.667969 L 176.578125 56.609375 L 189.542969 56.609375 Z M 208.078125 96.667969 " fill-opacity="1" fill-rule="nonzero"/><path fill="#000000" d="M 308.089844 56.609375 L 318.691406 56.609375 L 318.691406 96.667969 L 308.089844 96.667969 Z M 308.089844 56.609375 " fill-opacity="1" fill-rule="nonzero"/><path fill="#000000" d="M 69.015625 56.609375 C 69.015625 56.609375 69.015625 72.769531 69.015625 72.589844 L 90.402344 72.589844 L 90.402344 56.609375 C 90.402344 56.609375 100.84375 56.609375 101.183594 56.609375 L 101.183594 96.667969 L 90.402344 96.667969 L 90.402344 78.988281 L 69.015625 78.988281 L 69.015625 96.667969 L 58.234375 96.667969 L 58.234375 56.609375 Z M 69.015625 56.609375 " fill-opacity="1" fill-rule="nonzero"/><path fill="#000000" d="M 109.25 56.609375 L 120.03125 56.609375 L 120.03125 96.667969 L 109.25 96.667969 Z M 109.25 56.609375 " fill-opacity="1" fill-rule="nonzero"/><path fill="#000000" d="M 207.742188 85.390625 C 206.738281 82.691406 206.222656 80.007812 206.222656 76.96875 C 206.222656 72.769531 206.898438 68.726562 208.921875 65.351562 C 210.941406 61.988281 214.140625 59.128906 218.183594 57.609375 C 221.722656 56.429688 225.585938 55.589844 229.804688 55.589844 C 234.523438 55.589844 239.066406 56.59375 243.269531 58.289062 C 246.972656 59.96875 250.007812 63.332031 250.671875 67.546875 C 250.835938 68.226562 250.835938 69.230469 251.175781 70.070312 L 240.070312 70.070312 C 240.070312 69.066406 239.90625 67.886719 239.566406 67.046875 C 238.890625 64.863281 236.867188 63.007812 234.523438 62.328125 C 233.003906 61.828125 231.5 61.652344 229.804688 61.652344 C 228.109375 61.652344 226.101562 61.988281 224.582031 62.652344 C 221.882812 63.65625 219.863281 65.851562 218.859375 68.550781 C 217.859375 71.25 217.34375 73.933594 217.34375 76.96875 C 217.34375 79.492188 217.84375 81.6875 218.34375 83.871094 C 219.023438 86.894531 221.367188 89.089844 224.066406 90.09375 C 225.75 90.769531 227.769531 91.09375 229.789062 91.09375 C 231.472656 91.09375 232.988281 90.757812 234.832031 90.417969 C 236.855469 89.738281 238.535156 88.234375 239.554688 86.214844 C 240.054688 85.035156 240.554688 83.515625 240.554688 82.011719 L 251.660156 82.011719 C 251.660156 83.191406 251.5 84.535156 251.160156 85.714844 C 250.15625 89.753906 247.457031 92.953125 243.757812 94.632812 C 239.554688 96.316406 234.996094 97.332031 230.113281 97.332031 C 226.414062 97.332031 222.710938 96.832031 219.332031 95.652344 C 213.964844 94.308594 209.421875 90.609375 207.742188 85.390625 " fill-opacity="1" fill-rule="nonzero"/><path fill="#000000" d="M 48.8125 107.769531 L 39.386719 108.773438 L 39.386719 110.292969 L 39.550781 110.292969 C 43.25 110.792969 43.25 110.792969 43.25 113.492188 L 43.25 133.351562 L 48.972656 133.351562 L 48.8125 107.769531 C 48.972656 107.769531 48.8125 107.769531 48.8125 107.769531 Z M 48.8125 107.769531 " fill-opacity="1" fill-rule="nonzero"/><path fill="#000000" d="M 69.015625 115.1875 C 65.476562 115.1875 63.292969 117.707031 62.277344 118.886719 L 62.277344 115.1875 L 61.777344 115.1875 L 54.371094 116.367188 L 54.371094 117.546875 L 54.535156 117.546875 C 57.054688 117.546875 57.558594 118.046875 57.558594 120.570312 L 57.558594 133.027344 L 62.277344 133.027344 L 62.277344 123.769531 C 62.277344 121.246094 64.460938 118.386719 66.996094 118.386719 C 69.179688 118.386719 69.519531 120.40625 69.519531 123.429688 L 69.519531 133.191406 L 74.238281 133.191406 L 74.238281 120.730469 C 74.238281 117.207031 72.21875 115.1875 69.015625 115.1875 " fill-opacity="1" fill-rule="nonzero"/><path fill="#000000" d="M 87.527344 122.25 C 85.503906 121.246094 83.988281 120.570312 83.988281 119.226562 C 83.988281 117.707031 85.667969 117.546875 86.507812 117.546875 C 88.527344 117.546875 90.210938 118.546875 91.050781 119.066406 L 91.730469 119.566406 L 91.730469 116.042969 L 91.226562 115.703125 C 90.550781 115.363281 88.707031 115.203125 87.023438 115.203125 C 82.480469 115.203125 79.785156 117.222656 79.785156 120.421875 C 79.785156 123.445312 82.480469 124.625 85.003906 125.804688 C 87.023438 126.804688 88.707031 127.484375 88.707031 129.003906 C 88.707031 130.183594 87.527344 131.023438 85.503906 131.023438 C 83.324219 131.023438 81.300781 129.84375 80.285156 129.339844 L 79.785156 129.003906 L 79.785156 132.703125 L 79.945312 132.703125 C 80.949219 133.042969 82.644531 133.382812 85.167969 133.382812 C 89.886719 133.382812 92.910156 131.363281 92.910156 128.160156 C 93.085938 124.949219 90.0625 123.429688 87.527344 122.25 " fill-opacity="1" fill-rule="nonzero"/><path fill="#000000" d="M 107.230469 118.046875 C 110.429688 118.046875 110.933594 121.585938 110.933594 124.269531 C 110.933594 128.8125 109.753906 131.007812 107.390625 131.007812 C 104.191406 131.007812 103.691406 127.984375 103.691406 125.789062 L 103.691406 124.269531 C 103.527344 122.25 103.691406 118.046875 107.230469 118.046875 M 108.574219 115.1875 C 106.890625 115.1875 105.03125 115.867188 103.527344 117.707031 L 103.527344 115.1875 L 103.027344 115.1875 L 95.285156 116.367188 L 95.285156 117.546875 L 95.445312 117.546875 C 97.96875 117.546875 98.46875 118.046875 98.46875 120.570312 L 98.46875 140.265625 L 103.1875 140.265625 L 103.1875 131.347656 C 104.191406 132.347656 105.371094 133.367188 108.234375 133.367188 C 113.277344 133.367188 115.976562 130.167969 115.976562 123.945312 C 115.992188 118.546875 113.292969 115.1875 108.574219 115.1875 " fill-opacity="1" fill-rule="nonzero"/><path fill="#000000" d="M 119.515625 116.527344 L 119.515625 117.707031 L 119.679688 117.707031 C 121.859375 117.707031 122.375 118.210938 122.375 120.730469 L 122.375 133.191406 L 127.097656 133.191406 L 127.097656 115.1875 L 126.59375 115.1875 Z M 119.515625 116.527344 " fill-opacity="1" fill-rule="nonzero"/><path fill="#000000" d="M 124.914062 113.328125 C 126.59375 113.328125 127.9375 112.148438 127.9375 110.632812 C 127.9375 109.113281 126.757812 108.109375 124.914062 108.109375 C 123.394531 108.109375 121.890625 109.289062 121.890625 110.632812 C 122.214844 111.988281 123.394531 113.328125 124.914062 113.328125 " fill-opacity="1" fill-rule="nonzero"/><path fill="#000000" d="M 147.300781 119.226562 L 147.300781 115.527344 L 147.140625 115.527344 C 146.460938 115.1875 145.621094 115.1875 144.957031 115.1875 C 142.257812 115.1875 140.753906 117.207031 139.914062 118.726562 L 139.914062 115.1875 L 139.410156 115.1875 L 131.667969 116.367188 L 131.667969 117.546875 L 131.832031 117.546875 C 134.351562 117.546875 134.855469 118.046875 134.855469 120.570312 L 134.855469 133.027344 L 139.558594 133.027344 L 139.558594 124.105469 C 139.558594 122.589844 140.058594 119.066406 144.601562 119.066406 C 145.105469 119.066406 145.605469 119.402344 146.285156 119.402344 L 146.960938 119.742188 Z M 147.300781 119.226562 " fill-opacity="1" fill-rule="nonzero"/><path fill="#000000" d="M 158.246094 117.207031 C 160.765625 117.207031 161.445312 118.886719 161.445312 120.746094 L 154.542969 120.746094 C 154.707031 119.550781 155.546875 117.207031 158.246094 117.207031 M 166.148438 122.425781 C 166.148438 117.707031 163.453125 115.1875 158.230469 115.1875 C 152.332031 115.1875 149.308594 117.886719 149.308594 123.605469 C 149.308594 129.664062 153.347656 133.367188 159.75 133.367188 C 162.449219 133.367188 164.792969 132.6875 165.648438 132.363281 L 165.8125 132.363281 L 165.8125 130.183594 L 165.308594 130.183594 C 164.632812 130.519531 163.125 130.683594 161.609375 130.683594 C 156.386719 130.683594 154.707031 126.480469 154.367188 122.765625 L 165.988281 122.765625 Z M 166.148438 122.425781 " fill-opacity="1" fill-rule="nonzero"/><path fill="#000000" d="M 209.761719 115.1875 C 206.222656 115.1875 204.378906 117.371094 203.359375 118.886719 L 203.359375 106.945312 L 202.859375 106.945312 L 195.117188 107.949219 L 195.117188 109.128906 L 195.277344 109.128906 C 197.800781 109.128906 198.300781 109.804688 198.300781 112.148438 L 198.300781 132.851562 L 203.019531 132.851562 L 203.019531 123.929688 C 203.019531 120.730469 205.542969 118.210938 207.5625 118.210938 C 210.261719 118.210938 210.261719 120.230469 210.261719 121.910156 L 210.261719 132.851562 L 214.980469 132.851562 L 214.980469 121.410156 C 215.144531 119.726562 215.144531 115.1875 209.761719 115.1875 " fill-opacity="1" fill-rule="nonzero"/><path fill="#000000" d="M 228.609375 117.207031 C 231.132812 117.207031 231.808594 118.886719 231.808594 120.746094 L 224.90625 120.746094 C 225.246094 119.550781 225.925781 117.207031 228.609375 117.207031 M 236.53125 122.425781 C 236.53125 117.707031 233.832031 115.1875 228.609375 115.1875 C 222.710938 115.1875 219.6875 117.886719 219.6875 123.605469 C 219.6875 129.664062 223.726562 133.367188 230.128906 133.367188 C 232.828125 133.367188 235.171875 132.6875 236.027344 132.363281 L 236.191406 132.363281 L 236.191406 130.183594 L 235.6875 130.183594 C 235.011719 130.519531 233.507812 130.683594 231.988281 130.683594 C 226.765625 130.683594 225.085938 126.480469 224.746094 122.765625 L 236.367188 122.765625 C 236.53125 122.75 236.53125 122.425781 236.53125 122.425781 Z M 236.53125 122.425781 " fill-opacity="1" fill-rule="nonzero"/><path fill="#000000" d="M 183.15625 110.308594 L 183.15625 115.6875 L 179.953125 115.6875 L 179.953125 117.707031 L 183.15625 117.707031 L 183.15625 128.488281 C 183.15625 133.203125 186.179688 133.527344 189.554688 133.527344 C 190.558594 133.527344 191.238281 133.191406 192.253906 133.191406 L 192.417969 133.191406 L 192.417969 131.007812 L 191.914062 131.007812 C 191.414062 131.007812 190.914062 131.347656 190.398438 131.347656 C 187.375 131.347656 187.375 130.667969 187.375 128.148438 L 187.375 117.886719 L 192.757812 117.886719 L 192.757812 115.703125 L 187.375 115.703125 L 187.375 110.484375 Z M 183.15625 110.308594 " fill-opacity="1" fill-rule="nonzero"/><path fill="#000000" d="M 277.101562 108.285156 L 272.382812 108.285156 L 272.382812 127.144531 C 271.378906 125.625 259.921875 108.285156 259.921875 108.285156 L 248.976562 108.285156 L 248.976562 109.804688 L 249.980469 109.96875 C 253.003906 110.46875 253.179688 110.46875 253.179688 113.507812 L 253.179688 133.367188 L 258.402344 133.367188 L 258.402344 113.507812 C 259.40625 115.023438 271.527344 133.367188 271.527344 133.367188 L 277.75 133.367188 L 277.75 108.609375 L 277.074219 108.609375 Z M 277.101562 108.285156 " fill-opacity="1" fill-rule="nonzero"/><path fill="#000000" d="M 290.90625 117.207031 C 293.429688 117.207031 294.109375 118.886719 294.109375 120.746094 L 287.042969 120.746094 C 287.367188 119.550781 288.046875 117.207031 290.90625 117.207031 M 298.828125 122.425781 C 298.828125 117.707031 296.128906 115.1875 290.90625 115.1875 C 284.84375 115.1875 281.984375 118.210938 281.984375 123.605469 C 281.984375 129.664062 286.023438 133.367188 292.425781 133.367188 C 295.125 133.367188 297.46875 132.6875 298.148438 132.363281 L 298.488281 132.363281 L 298.488281 130.183594 L 297.988281 130.519531 C 297.308594 130.859375 295.804688 131.023438 294.285156 131.023438 C 289.0625 131.023438 287.382812 126.820312 287.042969 123.105469 L 298.664062 123.105469 Z M 298.828125 122.425781 " fill-opacity="1" fill-rule="nonzero"/><path fill="#000000" d="M 325.257812 110.308594 L 325.257812 115.6875 L 322.054688 115.6875 L 322.054688 117.707031 L 325.257812 117.707031 L 325.257812 128.488281 C 325.257812 133.203125 328.28125 133.527344 331.65625 133.527344 C 332.660156 133.527344 333.339844 133.191406 334.355469 133.191406 L 334.695312 133.191406 L 334.695312 131.007812 L 334.195312 131.007812 C 333.691406 131.007812 333.191406 131.347656 332.675781 131.347656 C 329.652344 131.347656 329.652344 130.667969 329.652344 128.148438 L 329.652344 117.886719 L 335.035156 117.886719 L 335.035156 115.703125 L 329.652344 115.703125 L 329.652344 110.484375 Z M 325.257812 110.308594 " fill-opacity="1" fill-rule="nonzero"/><path fill="#000000" d="M 315.492188 121.410156 L 320.535156 115.6875 L 315.492188 115.6875 L 310.773438 121.070312 L 306.570312 115.6875 L 299.328125 115.6875 L 299.328125 117.207031 L 299.667969 117.207031 C 302.191406 117.546875 302.691406 117.707031 304.210938 119.90625 L 307.234375 123.945312 L 302.191406 129.664062 L 307.234375 129.664062 L 309.417969 127.144531 L 314.136719 133.367188 L 319.859375 133.367188 L 310.933594 121.75 L 315.65625 121.75 Z M 315.492188 121.410156 " fill-opacity="1" fill-rule="nonzero"/><path fill="#ff0026" d="M 325.257812 110.308594 L 320.199219 110.308594 L 326.097656 103.40625 L 331.316406 103.40625 Z M 325.257812 110.308594 " fill-opacity="1" fill-rule="nonzero"/><path fill="#ff0026" d="M 45.417969 274.351562 C 52.453125 276.03125 57.824219 281.382812 59.503906 288.429688 C 60.003906 290.777344 61.6875 292.617188 64.195312 292.796875 C 61.671875 292.957031 60.003906 294.800781 59.503906 297.160156 C 57.824219 304.191406 52.292969 309.738281 45.417969 311.242188 C 43.074219 311.742188 41.230469 313.421875 41.054688 315.929688 C 40.890625 313.40625 39.046875 311.742188 36.6875 311.242188 C 29.652344 309.558594 24.285156 304.03125 22.605469 297.160156 C 22.101562 294.816406 20.421875 292.972656 17.914062 292.796875 C 20.4375 292.632812 22.101562 290.789062 22.605469 288.429688 C 24.285156 281.398438 29.640625 276.03125 36.6875 274.351562 C 39.035156 273.847656 40.878906 272.167969 41.054688 269.660156 C 41.214844 272.183594 43.058594 273.847656 45.417969 274.351562 Z M 41.054688 300.507812 C 45.242188 300.507812 48.605469 297.160156 48.605469 292.957031 C 48.605469 288.769531 45.257812 285.410156 41.054688 285.410156 C 36.851562 285.410156 33.503906 288.753906 33.503906 292.957031 C 33.339844 297.144531 36.867188 300.507812 41.054688 300.507812 Z M 30.996094 281.398438 L 39.210938 281.398438 L 39.210938 277.710938 C 36.023438 278.214844 33.179688 279.554688 30.996094 281.398438 Z M 42.898438 281.398438 L 51.113281 281.398438 C 48.929688 279.394531 46.082031 278.050781 42.898438 277.710938 Z M 41.054688 308.042969 C 45.742188 308.042969 48.429688 306.539062 51.113281 304.191406 L 30.996094 304.191406 C 33.679688 306.699219 37.203125 308.042969 41.054688 308.042969 Z M 41.054688 296.644531 C 43.238281 296.644531 44.902344 294.964844 44.902344 292.796875 C 44.902344 290.628906 43.222656 288.949219 41.054688 288.949219 C 39.046875 288.949219 37.203125 290.628906 37.203125 292.796875 C 37.203125 294.964844 38.871094 296.644531 41.054688 296.644531 Z M 32.5 300.507812 C 30.65625 298.5 29.652344 295.816406 29.652344 292.957031 C 29.652344 290.113281 30.65625 287.429688 32.5 285.410156 L 27.808594 285.410156 C 26.46875 287.589844 25.804688 290.273438 25.804688 292.957031 C 25.804688 295.640625 26.46875 298.324219 27.808594 300.507812 Z M 54.136719 300.507812 C 55.476562 298.324219 56.140625 295.640625 56.140625 292.957031 C 56.140625 290.113281 55.476562 287.589844 54.136719 285.410156 L 49.445312 285.410156 C 51.289062 287.414062 52.292969 290.097656 52.292969 292.957031 C 52.292969 295.804688 51.113281 298.488281 49.445312 300.507812 Z M 54.136719 300.507812 " fill-opacity="1" fill-rule="nonzero"/><path fill="#ff0026" d="M 68.382812 277.710938 L 68.382812 308.054688 L 75.09375 308.054688 L 75.09375 294.976562 L 87.335938 294.976562 L 87.335938 308.054688 L 94.046875 308.054688 L 94.046875 277.710938 L 87.335938 277.710938 L 87.335938 289.449219 L 75.09375 289.449219 L 75.09375 277.710938 Z M 98.394531 277.710938 L 98.394531 282.738281 L 104.429688 282.738281 L 104.429688 277.710938 Z M 98.394531 286.085938 L 98.394531 308.042969 L 104.429688 308.042969 L 104.429688 286.085938 Z M 110.960938 279.378906 L 110.960938 285.910156 L 107.273438 285.910156 L 107.273438 289.933594 L 110.960938 289.933594 L 110.960938 302.835938 C 110.960938 306.683594 113.304688 308.203125 117.835938 308.203125 C 119.015625 308.203125 120.355469 308.203125 121.359375 308.042969 L 121.359375 303.351562 C 120.859375 303.515625 120.179688 303.515625 119.515625 303.515625 C 117.511719 303.515625 116.992188 303.011719 116.992188 300.992188 L 116.992188 290.097656 L 121.359375 290.097656 L 121.359375 286.070312 L 116.992188 286.070312 L 116.992188 279.539062 Z M 134.941406 285.421875 C 128.734375 285.421875 124.882812 287.945312 124.542969 292.796875 L 130.578125 292.796875 C 130.738281 290.453125 132.082031 289.449219 134.601562 289.449219 C 136.609375 289.449219 138.453125 289.789062 138.453125 292.472656 C 138.453125 294.476562 136.769531 294.816406 132.761719 295.15625 C 129.074219 295.492188 127.066406 296.15625 125.726562 297.335938 C 124.542969 298.339844 123.882812 299.859375 123.882812 302.027344 C 123.882812 306.210938 126.90625 308.558594 131.433594 308.558594 C 134.617188 308.558594 137.125 307.554688 138.808594 305.875 C 138.808594 306.539062 138.96875 307.378906 139.144531 308.054688 L 145.355469 308.054688 C 144.851562 307.214844 144.515625 305.035156 144.515625 303.367188 L 144.515625 291.628906 C 144.5 287.589844 141.3125 285.421875 134.941406 285.421875 Z M 129.914062 301.847656 C 129.914062 299.503906 131.757812 298.824219 134.941406 298.324219 C 136.949219 298.164062 138.128906 297.824219 138.628906 297.320312 L 138.628906 299.667969 C 138.628906 302.851562 136.949219 304.695312 133.761719 304.695312 C 130.917969 304.695312 129.914062 303.515625 129.914062 301.847656 Z M 158.910156 285.421875 C 151.875 285.421875 147.671875 290.289062 147.671875 297.320312 C 147.671875 303.691406 151.859375 308.558594 158.730469 308.558594 C 164.601562 308.558594 168.449219 305.371094 169.292969 299.503906 L 163.421875 299.503906 C 163.082031 302.527344 161.238281 304.03125 158.554688 304.03125 C 155.03125 304.03125 153.527344 300.683594 153.527344 297.160156 C 153.527344 293.636719 155.03125 289.949219 158.71875 289.949219 C 161.238281 289.949219 162.742188 291.292969 163.246094 293.796875 L 169.113281 293.796875 C 168.96875 288.609375 164.617188 285.421875 158.910156 285.421875 Z M 172.667969 277.710938 L 172.667969 308.054688 L 178.699219 308.054688 L 178.699219 296.496094 C 178.699219 292.648438 179.703125 290.125 183.390625 290.125 C 186.238281 290.125 187.242188 291.808594 187.242188 295.492188 L 187.242188 308.070312 L 193.273438 308.070312 L 193.273438 294.328125 C 193.273438 288.296875 190.75 285.453125 185.21875 285.453125 C 182.699219 285.453125 180.191406 286.792969 178.6875 289.140625 L 178.523438 289.140625 L 178.523438 277.742188 L 172.667969 277.742188 Z M 197.636719 277.710938 L 197.636719 282.738281 L 203.671875 282.738281 L 203.671875 277.710938 Z M 197.636719 286.085938 L 197.636719 308.042969 L 203.671875 308.042969 L 203.671875 286.085938 Z M 218.433594 277.710938 L 218.433594 308.054688 L 241.574219 308.054688 L 241.574219 302.363281 L 225.144531 302.363281 L 225.144531 294.992188 L 239.890625 294.992188 L 239.890625 289.800781 L 225.144531 289.800781 L 225.144531 283.269531 L 241.234375 283.269531 L 241.234375 277.578125 Z M 257.828125 285.421875 C 254.980469 285.421875 252.457031 286.765625 251.117188 289.109375 L 250.953125 289.109375 L 250.953125 286.085938 L 245.261719 286.085938 L 245.261719 308.042969 L 251.292969 308.042969 L 251.292969 296.644531 C 251.292969 292.796875 252.296875 290.273438 255.984375 290.273438 C 258.828125 290.273438 259.832031 291.957031 259.832031 295.640625 L 259.832031 308.042969 L 265.863281 308.042969 L 265.863281 294.300781 C 265.878906 288.269531 263.355469 285.421875 257.828125 285.421875 Z M 280.125 285.421875 C 273.414062 285.421875 268.886719 290.453125 268.886719 296.984375 C 268.886719 303.691406 273.078125 308.542969 280.125 308.542969 C 285.316406 308.542969 288.84375 306.199219 290.347656 301.171875 L 285.15625 301.171875 C 284.652344 302.675781 282.632812 304.015625 280.289062 304.015625 C 276.761719 304.015625 275.097656 302.171875 274.917969 298.488281 L 290.847656 298.488281 C 290.847656 298.488281 290.847656 297.644531 290.847656 297.308594 C 290.863281 290.953125 287.175781 285.421875 280.125 285.421875 Z M 274.933594 294.636719 C 275.097656 291.792969 276.941406 289.949219 279.964844 289.949219 C 282.808594 289.949219 284.152344 291.292969 284.832031 294.636719 Z M 307.117188 285.421875 C 304.09375 285.421875 301.246094 287.265625 300.082031 290.113281 L 300.082031 286.085938 L 294.386719 286.085938 L 294.386719 308.042969 L 300.417969 308.042969 L 300.417969 298.148438 C 300.417969 294.121094 301.925781 291.113281 306.453125 291.113281 C 307.292969 291.113281 307.957031 291.277344 308.632812 291.277344 L 308.632812 285.585938 C 308.117188 285.585938 307.617188 285.421875 307.117188 285.421875 Z M 319.355469 285.421875 C 313.148438 285.421875 309.960938 290.613281 309.960938 296.320312 C 309.960938 302.6875 312.984375 307.378906 319.355469 307.378906 C 322.378906 307.378906 324.726562 306.035156 325.890625 304.03125 L 326.050781 304.03125 L 326.050781 307.054688 C 326.050781 310.398438 324.371094 312.421875 321.1875 312.421875 C 318.839844 312.421875 317.160156 311.578125 316.65625 309.398438 L 310.640625 309.398438 C 310.980469 313.925781 315.332031 316.429688 320.359375 316.429688 C 328.414062 316.429688 331.761719 312.40625 331.761719 306.714844 L 331.761719 286.085938 L 325.890625 286.085938 L 325.890625 289.109375 C 324.5625 286.589844 322.378906 285.421875 319.355469 285.421875 Z M 315.832031 296.320312 C 315.832031 292.632812 317.511719 290.113281 320.699219 290.113281 C 324.886719 290.113281 325.890625 293.796875 325.890625 296.820312 C 325.890625 300.34375 324.046875 303.027344 320.699219 303.027344 C 317.351562 302.851562 315.832031 299.828125 315.832031 296.320312 Z M 333.78125 286.085938 L 341.496094 306.699219 C 341.65625 307.363281 341.832031 307.703125 341.832031 308.042969 C 341.832031 309.546875 340.832031 310.722656 339.148438 310.722656 C 338.308594 310.722656 337.304688 310.722656 335.964844 310.5625 L 335.964844 315.589844 C 337.304688 315.753906 338.308594 315.753906 339.8125 315.753906 C 343.839844 315.753906 346.023438 314.25 347.363281 310.722656 L 356.582031 285.925781 L 350.371094 285.925781 L 345.503906 301.007812 L 345.34375 301.007812 L 340.3125 285.925781 Z M 333.78125 286.085938 " fill-opacity="1" fill-rule="nonzero"/></svg>